<svg width="45" height="25" viewBox="0 0 45 25" fill="none" xmlns="http://www.w3.org/2000/svg">
<path d="M29.6487 14.7617H19.9789L20.1948 15.8379H29.0489C29.5569 15.8379 29.9335 16.3188 29.8209 16.8239L29.6389 17.6403C30.2554 17.9454 30.6806 18.5898 30.6806 19.3354C30.6806 20.3848 29.8388 21.2337 28.8062 21.2185C27.8224 21.2041 27.0134 20.3902 26.9868 19.3875C26.9723 18.8397 27.1875 18.3433 27.5411 17.9902H20.6256C20.9679 18.3321 21.1806 18.8083 21.1806 19.3354C21.1806 20.4053 20.3055 21.2669 19.2453 21.2167C18.3038 21.1721 17.5382 20.3966 17.4887 19.437C17.4505 18.696 17.833 18.0429 18.414 17.7022L16.0968 6.15234H13.7917C13.3544 6.15234 13 5.79098 13 5.34521V4.80713C13 4.36136 13.3544 4 13.7917 4H17.1737C17.5498 4 17.8739 4.26975 17.9493 4.64537L18.2517 6.15234H31.208C31.716 6.15234 32.0926 6.63329 31.98 7.13835L30.4206 14.1335C30.3387 14.5009 30.0183 14.7617 29.6487 14.7617ZM26.4583 9.6499H24.875V8.30469C24.875 8.00749 24.6387 7.7666 24.3472 7.7666H23.8194C23.5279 7.7666 23.2917 8.00749 23.2917 8.30469V9.6499H21.7083C21.4168 9.6499 21.1806 9.8908 21.1806 10.188V10.7261C21.1806 11.0233 21.4168 11.2642 21.7083 11.2642H23.2917V12.6094C23.2917 12.9066 23.5279 13.1475 23.8194 13.1475H24.3472C24.6387 13.1475 24.875 12.9066 24.875 12.6094V11.2642H26.4583C26.7498 11.2642 26.9861 11.0233 26.9861 10.7261V10.188C26.9861 9.8908 26.7498 9.6499 26.4583 9.6499Z" fill="white"/>
</svg>
