<svg width="13" height="14" viewBox="0 0 13 14" fill="none" xmlns="http://www.w3.org/2000/svg">
<g clip-path="url(#clip0_2_482)">
<path d="M6.49988 0.00830078C2.91605 0.00830078 0 3.06749 0 6.83007C0 10.5912 2.91605 13.6519 6.49988 13.6519C10.0841 13.6519 13 10.5912 13 6.83007C13 3.06749 10.0841 0.00830078 6.49988 0.00830078ZM6.49988 12.132C3.71416 12.132 1.44806 9.75361 1.44806 6.83011C1.44806 3.90534 3.71416 1.52698 6.49988 1.52698C9.28591 1.52698 11.552 3.90538 11.552 6.83011C11.552 9.75361 9.28588 12.132 6.49988 12.132Z" fill="white"/>
<path d="M8.63338 8.06568C8.21815 8.81356 7.44604 9.27749 6.61842 9.27749C5.3332 9.27749 4.28632 8.17893 4.28632 6.82991C4.28632 5.47978 5.3332 4.38085 6.61842 4.38085C7.44608 4.38085 8.21815 4.84649 8.63338 5.59289L8.68704 5.69043H10.2536L10.1595 5.42572C9.88694 4.66773 9.40863 4.02327 8.77549 3.56327C8.14075 3.10209 7.39517 2.85742 6.61842 2.85742C4.53183 2.85742 2.83496 4.64 2.83496 6.82991C2.83496 9.01998 4.53183 10.8009 6.61842 10.8009C7.39517 10.8009 8.14071 10.557 8.77549 10.0951C9.40863 9.63504 9.88694 8.99079 10.1595 8.23281L10.2536 7.96795H8.68704L8.63338 8.06568Z" fill="white"/>
</g>
<defs>
<clipPath id="clip0_2_482">
<rect width="13" height="13.6449" fill="white" transform="translate(0 0.0078125)"/>
</clipPath>
</defs>
</svg>
