<svg width="34" height="15" viewBox="0 0 34 15" fill="none" xmlns="http://www.w3.org/2000/svg">
<path d="M16.9991 14.5C17.2618 14.5008 17.5151 14.4719 17.757 14.4101C18.0145 14.3444 18.2534 14.2329 18.4714 14.0783L18.472 14.0779L32.6561 3.98381L32.3668 3.57603L32.6567 3.98341L32.6566 3.98347C33.1673 3.62093 33.5 3.13554 33.5 2.52765C33.5 1.91977 33.1673 1.43439 32.6566 1.07185C32.1411 0.705083 31.5376 0.529954 30.8689 0.529954C30.2084 0.529954 29.6163 0.690995 29.1223 1.04153L17 9.64267L4.87772 1.04153C4.36355 0.676705 3.76784 0.5 3.11082 0.5C2.45379 0.5 1.85808 0.676705 1.34391 1.04153C0.824449 1.4101 0.5 1.90779 0.5 2.52765C0.5 3.13544 0.798642 3.62688 1.30169 3.98381L15.5286 14.0783L15.5299 14.0792C15.7477 14.2327 15.9861 14.3433 16.243 14.4089L16.3663 13.9263L16.243 14.4089C16.4842 14.4706 16.737 14.4999 16.9991 14.5ZM16.9991 14.5C16.9994 14.5 16.9997 14.5 17 14.5V14L16.9982 14.5C16.9985 14.5 16.9988 14.5 16.9991 14.5Z" fill="#F7C334" stroke="#F7C334"/>
</svg>
