<svg width="21" height="21" viewBox="0 0 21 21" fill="none" xmlns="http://www.w3.org/2000/svg">
<path opacity="0.2" d="M10.5 4.59375C17.0625 4.59375 19.6875 10.5 19.6875 10.5C19.6875 10.5 17.0625 16.4062 10.5 16.4062C3.9375 16.4062 1.3125 10.5 1.3125 10.5C1.3125 10.5 3.9375 4.59375 10.5 4.59375ZM10.5 13.7812C11.149 13.7812 11.7834 13.5888 12.323 13.2283C12.8626 12.8677 13.2831 12.3553 13.5315 11.7557C13.7798 11.1561 13.8448 10.4964 13.7182 9.85986C13.5916 9.22336 13.2791 8.6387 12.8202 8.17981C12.3613 7.72091 11.7766 7.40841 11.1401 7.2818C10.5036 7.15519 9.84389 7.22017 9.24432 7.46852C8.64475 7.71687 8.13229 8.13744 7.77174 8.67704C7.41119 9.21663 7.21875 9.85103 7.21875 10.5C7.21875 11.3702 7.56445 12.2048 8.17981 12.8202C8.79516 13.4355 9.62976 13.7812 10.5 13.7812Z" fill="black" fill-opacity="0.4"/>
<path d="M16.5784 2.8383C16.697 2.71426 16.8594 2.64159 17.0309 2.63586C17.2024 2.63014 17.3693 2.6918 17.4959 2.80765C17.6225 2.9235 17.6986 3.08432 17.7081 3.25564C17.7175 3.42697 17.6595 3.59518 17.5464 3.72424L15.9714 5.4551C18.9491 7.28439 20.2288 10.1063 20.2863 10.2375C20.3229 10.3202 20.3418 10.4096 20.3418 10.5C20.3418 10.5904 20.3229 10.6799 20.2863 10.7625C20.2616 10.8281 19.5644 12.3703 18.0222 13.9207C15.9632 15.9715 13.3628 17.0625 10.4999 17.0625C9.02913 17.0684 7.57337 16.7666 6.2261 16.1766L4.42141 18.1617C4.35995 18.2289 4.28518 18.2826 4.20185 18.3193C4.11853 18.356 4.02848 18.375 3.93742 18.375C3.77373 18.3734 3.61623 18.3122 3.49446 18.2028C3.42995 18.1452 3.37761 18.0753 3.34053 17.9972C3.30346 17.919 3.28239 17.8343 3.27857 17.7479C3.27474 17.6615 3.28825 17.5753 3.31828 17.4942C3.34831 17.4131 3.39427 17.3388 3.45344 17.2758L16.5784 2.8383ZM12.6984 9.06447L9.27766 12.8215C9.65394 13.0216 10.0737 13.1259 10.4999 13.125C10.973 13.1252 11.4374 12.9974 11.8438 12.7554C12.2503 12.5133 12.5838 12.1658 12.8091 11.7498C13.0343 11.3338 13.1429 10.8646 13.1234 10.3919C13.104 9.9192 12.9571 9.46056 12.6984 9.06447ZM10.4999 15.75C13.0265 15.75 15.2331 14.8313 17.0542 13.0184C17.8087 12.2768 18.4499 11.4282 18.9573 10.5C18.5718 9.77814 17.3413 7.76017 15.0691 6.44767L13.5925 8.07189C14.1617 8.80385 14.4543 9.71317 14.4187 10.6397C14.3832 11.5662 14.0219 12.4505 13.3984 13.1367C12.7749 13.823 11.9292 14.2672 11.0103 14.3911C10.0915 14.515 9.15832 14.3107 8.37532 13.8141L7.16946 15.143C8.23248 15.5497 9.36177 15.7555 10.4999 15.75ZM0.713594 10.2375C0.738205 10.1719 1.43547 8.6297 2.97766 7.07931C5.03664 5.02853 7.63703 3.93752 10.4999 3.93752C11.1045 3.93642 11.7082 3.98581 12.3046 4.08517C12.3897 4.09911 12.4713 4.1297 12.5446 4.17519C12.6179 4.22068 12.6815 4.28017 12.7318 4.35026C12.7821 4.42036 12.818 4.49968 12.8376 4.58369C12.8572 4.6677 12.8601 4.75475 12.846 4.83986C12.8159 5.0108 12.72 5.16315 12.579 5.26433C12.4379 5.36551 12.2629 5.40748 12.0913 5.38127C11.5656 5.29178 11.0332 5.24787 10.4999 5.25002C7.97336 5.25002 5.76672 6.16877 3.94563 7.97345C3.19236 8.71717 2.55375 9.56865 2.0507 10.5C2.63968 11.5815 3.40802 12.5551 4.32297 13.3793C4.38708 13.4369 4.43921 13.5066 4.47638 13.5844C4.51355 13.6622 4.53504 13.7465 4.53961 13.8326C4.54418 13.9187 4.53175 14.0048 4.50302 14.0861C4.47429 14.1674 4.42984 14.2422 4.37219 14.3063C4.31286 14.3766 4.2387 14.433 4.15502 14.4713C4.07134 14.5095 3.98022 14.5288 3.8882 14.5278C3.72826 14.5272 3.57389 14.4689 3.45344 14.3637C1.57492 12.682 0.746407 10.8445 0.713594 10.7625C0.67697 10.6799 0.658049 10.5904 0.658049 10.5C0.658049 10.4096 0.67697 10.3202 0.713594 10.2375Z" fill="black" fill-opacity="0.4"/>
<path d="M7.88324 10.2539C7.86886 10.4157 7.79428 10.5661 7.67427 10.6755C7.55426 10.7849 7.39757 10.8452 7.2352 10.8446H7.16957C6.99674 10.8279 6.83754 10.7435 6.72684 10.6097C6.61614 10.476 6.56296 10.3038 6.57895 10.1309C6.66195 9.2823 7.01649 8.48312 7.58989 7.85208C8.1633 7.22104 8.92497 6.79181 9.76176 6.62816C9.84686 6.612 9.93431 6.61276 10.0191 6.6304C10.1039 6.64804 10.1844 6.68221 10.256 6.73096C10.4006 6.82941 10.5002 6.98128 10.5329 7.15316C10.5655 7.32503 10.5285 7.50283 10.4301 7.64743C10.3316 7.79204 10.1797 7.89161 10.0079 7.92425C9.45031 8.03254 8.94253 8.31766 8.55982 8.73732C8.1771 9.15697 7.93985 9.68881 7.88324 10.2539Z" fill="black" fill-opacity="0.4"/>
</svg>
