<svg width="16" height="25" viewBox="0 0 16 25" fill="none" xmlns="http://www.w3.org/2000/svg">
<path d="M5.63928 12.076L14.2025 4.03733C14.5967 3.66727 14.8171 3.20568 14.8258 2.67219C14.8346 2.13869 14.6294 1.67014 14.2475 1.28739C13.8606 0.899666 13.3796 0.696483 12.8314 0.687518C12.2934 0.67872 11.813 0.849641 11.4268 1.21223L1.18027 10.8311L1.18027 10.8311L1.17905 10.8322C1.01255 10.9896 0.879769 11.1741 0.796652 11.3873C0.72124 11.5807 0.68361 11.7842 0.680045 11.9937M5.63928 12.076L13.8597 23.1404C13.4657 23.51 12.9903 23.7024 12.4552 23.6936C11.9199 23.6849 11.4509 23.4769 11.0691 23.0944C11.069 23.0943 11.069 23.0943 11.069 23.0943L1.14247 13.1751L1.14195 13.1746C0.979596 13.0118 0.851924 12.8228 0.775524 12.6061C0.706167 12.4094 0.675664 12.2039 0.680045 11.9937M5.63928 12.076L13.9351 20.3904C14.3078 20.7639 14.4924 21.2315 14.4838 21.7608C14.4749 22.3004 14.2575 22.7678 13.8602 23.1399L5.63928 12.076ZM0.680045 11.9937C0.680054 11.9932 0.680063 11.9928 0.680072 11.9924L1.17996 12.0031L0.680023 11.995C0.68003 11.9945 0.680037 11.9941 0.680045 11.9937Z" fill="#F7C334" stroke="#F7C334"/>
</svg>
