<svg width="16" height="25" viewBox="0 0 16 25" fill="none" xmlns="http://www.w3.org/2000/svg">
<path d="M9.71033 12.1427L1.14707 20.1814C0.752861 20.5515 0.532499 21.0131 0.523775 21.5466C0.515052 22.0801 0.720204 22.5486 1.1021 22.9314C1.48896 23.3191 1.96998 23.5223 2.51824 23.5312C3.05626 23.54 3.53659 23.3691 3.92284 23.0065L14.1693 13.3877L14.1693 13.3877L14.1706 13.3865C14.3371 13.2292 14.4698 13.0447 14.553 12.8315C14.6284 12.6381 14.666 12.4346 14.6696 12.2251M9.71033 12.1427L1.48986 1.0784C1.88386 0.708741 2.35931 0.516364 2.89444 0.525115C3.42973 0.533868 3.89875 0.741804 4.28052 1.12436C4.28056 1.1244 4.28061 1.12445 4.28066 1.1245L14.2071 11.0437L14.2077 11.0442C14.37 11.2069 14.4977 11.396 14.5741 11.6126C14.6434 11.8093 14.6739 12.0148 14.6696 12.2251M9.71033 12.1427L1.41448 3.82831C1.04185 3.45484 0.8572 2.9872 0.865855 2.45794C0.874678 1.91835 1.09212 1.451 1.48937 1.07886L9.71033 12.1427ZM14.6696 12.2251C14.6696 12.2255 14.6695 12.2259 14.6695 12.2264L14.1697 12.2156L14.6696 12.2238C14.6696 12.2242 14.6696 12.2247 14.6696 12.2251Z" fill="#F7C334" stroke="#F7C334"/>
</svg>
